<?xml version="1.0" encoding="UTF-8" standalone="no"?>
<!-- Created with Inkscape (http://www.inkscape.org/) -->

<svg
   width="17.070339mm"
   height="20.921106mm"
   viewBox="0 0 17.070339 20.921106"
   version="1.1"
   id="svg1"
   xml:space="preserve"
   xmlns:inkscape="http://www.inkscape.org/namespaces/inkscape"
   xmlns:sodipodi="http://sodipodi.sourceforge.net/DTD/sodipodi-0.dtd"
   xmlns="http://www.w3.org/2000/svg"
   xmlns:svg="http://www.w3.org/2000/svg"><sodipodi:namedview
     id="namedview1"
     pagecolor="#ffffff"
     bordercolor="#000000"
     borderopacity="0.25"
     inkscape:showpageshadow="2"
     inkscape:pageopacity="0.0"
     inkscape:pagecheckerboard="0"
     inkscape:deskcolor="#d1d1d1"
     inkscape:document-units="mm"
     inkscape:zoom="1.4142136"
     inkscape:cx="303.34881"
     inkscape:cy="303.70236"
     inkscape:window-width="1920"
     inkscape:window-height="1051"
     inkscape:window-x="-9"
     inkscape:window-y="-9"
     inkscape:window-maximized="1"
     inkscape:current-layer="layer1" /><defs
     id="defs1" /><g
     inkscape:label="Layer 1"
     inkscape:groupmode="layer"
     id="layer1"
     transform="translate(-42.010819,-77.552519)"><g
       id="g30"
       transform="translate(-44.485602,-90.200773)"><path
         style="fill:#114fee;fill-opacity:1;stroke-width:0.259;stroke-dasharray:none"
         d="m 99.781864,170.23068 c 1.442716,-0.72136 0.376356,-0.18817 1.442716,-0.72136 1.06636,-0.53318 0.66373,-0.32625 1.06636,-0.53318 0.68007,-0.34951 0.65135,-0.34508 0.93307,-0.57238 0.21532,-0.17373 0.30188,-0.25875 0.30188,-0.25875 0,0 0.0157,-0.66256 0,0 -0.0157,0.66255 -0.0118,1.00363 -0.0118,1.00363 l 0.0196,7.97812 -0.0314,0.2117 c 0,0 0.14506,-0.54886 0,0 -0.14505,0.54887 -0.27835,0.84682 -0.27835,0.84682 l -0.26267,0.38421 c 0,0 -0.23523,0.23522 -0.34108,0.43909 -0.10585,0.20386 -0.67432,0.66255 -0.67432,0.66255 l -1.25062,0.80762 -1.136926,0.50965 -0.96443,0.43125 -0.733125,0.22739 -2.67374,0.90562 -3.51996,1.31045 -1.222082,0.71956 -1.009068,0.80947 c 0,0 -0.06847,0.057 -0.365928,0.42137 -0.509259,0.62382 -0.487903,0.83166 -0.554435,1.19758 -0.06653,0.36593 -0.04436,0.60988 0.02218,0.94254 0.06653,0.33267 0.188508,0.72077 0.188508,0.72077 -0.765122,-0.63206 -0.871837,-0.7231 -1.260733,-1.2752 -0.196166,-0.27849 -0.234795,-0.32873 -0.280886,-0.38956 -0.06057,-0.0799 -0.09302,-0.10532 -0.128259,-0.17541 -0.142436,-0.28329 -0.231928,-0.51148 -0.299588,-0.73006 -0.194669,-0.62888 -0.219965,-0.74129 -0.228168,-0.8092 -0.01067,-0.0883 -0.0086,-0.20597 -0.0099,-0.30348 -0.0024,-0.17899 -0.01332,-7.14308 -0.01384,-7.61397 -3.1e-4,-0.28289 0.03342,-0.47337 0.0541,-0.53365 0.03516,-0.1025 0.326547,-0.54447 0.692476,-0.9104 0.365927,-0.36593 0.785138,-0.73826 1.042337,-0.89819 0.271373,-0.16874 0.92077,-0.58588 1.264113,-0.76512 0.319762,-0.16693 1.796369,-0.86491 1.796369,-0.86491 l 8.427515,-3.17457"
         id="path23"
         sodipodi:nodetypes="cssscscccsccscccccccccssscssssssssssscc" /><path
         style="fill:#57e1ff;fill-opacity:0.804965;stroke-width:0.259;stroke-dasharray:none"
         d="m 87.134011,185.57956 c -0.1914,0.59054 -0.03351,1.28431 0.0048,1.37189 -0.229732,-0.22526 -0.626442,-1.57648 -0.619126,-1.72242 l -0.01803,-7.96008 c 0,0 -0.01177,0.42733 0,0 0.01177,-0.42733 0.219546,-1.25454 0.337162,-1.57602 0.117612,-0.32148 0.929145,-1.73284 0.929145,-1.73284 l 0.838978,-0.94483 0.897781,-0.75665 1.38,-0.87033 1.89358,-1.02716 2.68944,-1.36824 1.709321,-1.0154 0.267045,-0.22419 0.02302,8.8139 c 0,0 0.0588,-0.34892 0,0 -0.0588,0.34892 -0.43516,1.37608 -0.43516,1.37608 l -0.356761,0.64295 -0.50966,0.52534 -0.3646,0.37637 -0.38421,0.23914 -0.63511,0.38813 -1.0154,0.5175 -2.66199,1.12909 -0.79585,0.37244 -0.760575,0.3646 c 0,0 -0.689999,0.41557 -0.991873,0.72529 -0.301874,0.30971 -0.962691,1.15994 -0.962691,1.15994"
         id="path22"
         sodipodi:nodetypes="ccccsscccccccccsccccccccccsc" /></g></g></svg>
