<svg width="245" height="80" viewBox="0 0 245 80" fill="none" xmlns="http://www.w3.org/2000/svg">
<g clip-path="url(#clip0_3_17)">
<path d="M50.5877 9.47325C56.0813 6.71485 52.0208 8.75372 56.0813 6.71486C60.1417 4.67603 58.6086 5.46728 60.1417 4.676C62.7313 3.33952 62.6219 3.35649 63.6946 2.48732C64.5145 1.82299 64.8441 1.49785 64.8441 1.49785C64.7844 4.03137 64.7992 5.33563 64.7992 5.33563L64.8739 35.8431L64.7543 36.6526C64.202 38.7514 63.6944 39.8908 63.6944 39.8908L62.6942 41.3599C62.6942 41.3599 61.7985 42.2594 61.3955 43.0389C60.9924 43.8185 58.8278 45.5725 58.8278 45.5725L54.0657 48.6607L49.7366 50.6096L46.0642 52.2586L43.2727 53.1281L33.0916 56.5911L19.6884 61.6022L15.035 64.3537L11.1927 67.449C11.1927 67.449 10.932 67.6669 9.79935 69.0603C7.8602 71.4457 7.94152 72.2405 7.68818 73.6397C7.43485 75.039 7.51926 75.9718 7.77263 77.2438C8.02596 78.5159 8.49042 80 8.49042 80C5.57701 77.583 5.17066 77.2349 3.68983 75.1238C2.94287 74.0589 2.79579 73.8668 2.62029 73.6342C2.38965 73.3286 2.26609 73.2314 2.13191 72.9634C1.58955 71.8801 1.24877 71.0076 0.991136 70.1717C0.24988 67.767 0.153571 67.3371 0.122336 67.0774C0.0817073 66.7398 0.0895781 66.2898 0.084628 65.9169C0.0754894 65.2325 0.0339095 38.6026 0.0319295 36.802C0.0307491 35.7202 0.159185 34.9919 0.23793 34.7614C0.371812 34.3694 1.48137 32.6794 2.87475 31.2801C4.26811 29.8808 5.86437 28.4571 6.84373 27.8455C7.87705 27.2003 10.3498 25.6052 11.6572 24.9198C12.8748 24.2814 18.4973 21.6124 18.4973 21.6124L50.5877 9.47325Z" fill="#114FEE"/>
<path d="M2.42778 68.1657C1.69897 70.4238 2.30018 73.0767 2.44606 73.4116C1.57129 72.5502 0.0607088 67.3834 0.0885664 66.8253L0.0199189 36.3868C0.0647364 34.7528 0.855886 31.5896 1.30374 30.3603C1.75158 29.131 4.84172 23.7341 4.84172 23.7341L8.03637 20.1212L11.4549 17.2278L16.7096 13.8998L23.92 9.97201L34.1608 4.74001L40.6695 0.857248L41.6863 0L41.774 33.7033C41.5501 35.0376 40.117 38.9653 40.117 38.9653L38.7585 41.4239L36.8178 43.4327L35.4295 44.872L33.9665 45.7864L31.5482 47.2706L27.6818 49.2494L17.5455 53.567L14.5151 54.9911L11.619 56.3853C11.619 56.3853 8.99163 57.9744 7.84217 59.1587C6.6927 60.343 4.17645 63.5942 4.17645 63.5942" fill="#57E1FF" fill-opacity="0.804965"/>
</g>
<path d="M87.128 16.736H91.784V50H87.128V16.736ZM99.7306 25.76C100.755 25.504 102.115 25.232 103.811 24.944C105.507 24.656 107.459 24.512 109.667 24.512C111.651 24.512 113.299 24.8 114.611 25.376C115.923 25.92 116.963 26.704 117.731 27.728C118.531 28.72 119.091 29.92 119.411 31.328C119.731 32.736 119.891 34.288 119.891 35.984V50H115.427V36.944C115.427 35.408 115.315 34.096 115.091 33.008C114.899 31.92 114.563 31.04 114.083 30.368C113.603 29.696 112.963 29.216 112.163 28.928C111.363 28.608 110.371 28.448 109.187 28.448C108.707 28.448 108.211 28.464 107.699 28.496C107.187 28.528 106.691 28.576 106.211 28.64C105.763 28.672 105.347 28.72 104.963 28.784C104.611 28.848 104.355 28.896 104.195 28.928V50H99.7306V25.76ZM131.469 25.04H140.925V28.784H131.469V40.304C131.469 41.552 131.565 42.592 131.757 43.424C131.949 44.224 132.237 44.864 132.621 45.344C133.005 45.792 133.485 46.112 134.061 46.304C134.637 46.496 135.309 46.592 136.077 46.592C137.421 46.592 138.493 46.448 139.293 46.16C140.125 45.84 140.701 45.616 141.021 45.488L141.885 49.184C141.437 49.408 140.653 49.68 139.533 50C138.413 50.352 137.133 50.528 135.693 50.528C133.997 50.528 132.589 50.32 131.469 49.904C130.381 49.456 129.501 48.8 128.829 47.936C128.157 47.072 127.677 46.016 127.389 44.768C127.133 43.488 127.005 42.016 127.005 40.352V18.08L131.469 17.312V25.04ZM155.822 24.512C156.206 24.512 156.638 24.544 157.118 24.608C157.63 24.64 158.126 24.704 158.606 24.8C159.086 24.864 159.518 24.944 159.902 25.04C160.318 25.104 160.622 25.168 160.814 25.232L160.046 29.12C159.694 28.992 159.102 28.848 158.27 28.688C157.47 28.496 156.43 28.4 155.15 28.4C154.318 28.4 153.486 28.496 152.654 28.688C151.854 28.848 151.326 28.96 151.07 29.024V50H146.606V26.096C147.662 25.712 148.974 25.36 150.542 25.04C152.11 24.688 153.87 24.512 155.822 24.512ZM173.569 46.784C174.625 46.784 175.553 46.768 176.353 46.736C177.185 46.672 177.873 46.576 178.417 46.448V39.008C178.097 38.848 177.569 38.72 176.833 38.624C176.129 38.496 175.265 38.432 174.241 38.432C173.569 38.432 172.849 38.48 172.081 38.576C171.345 38.672 170.657 38.88 170.017 39.2C169.409 39.488 168.897 39.904 168.481 40.448C168.065 40.96 167.857 41.648 167.857 42.512C167.857 44.112 168.369 45.232 169.393 45.872C170.417 46.48 171.809 46.784 173.569 46.784ZM173.185 24.416C174.977 24.416 176.481 24.656 177.697 25.136C178.945 25.584 179.937 26.24 180.673 27.104C181.441 27.936 181.985 28.944 182.305 30.128C182.625 31.28 182.785 32.56 182.785 33.968V49.568C182.401 49.632 181.857 49.728 181.153 49.856C180.481 49.952 179.713 50.048 178.849 50.144C177.985 50.24 177.041 50.32 176.017 50.384C175.025 50.48 174.033 50.528 173.041 50.528C171.633 50.528 170.337 50.384 169.153 50.096C167.969 49.808 166.945 49.36 166.081 48.752C165.217 48.112 164.545 47.28 164.065 46.256C163.585 45.232 163.345 44 163.345 42.56C163.345 41.184 163.617 40 164.161 39.008C164.737 38.016 165.505 37.216 166.465 36.608C167.425 36 168.545 35.552 169.825 35.264C171.105 34.976 172.449 34.832 173.857 34.832C174.305 34.832 174.769 34.864 175.249 34.928C175.729 34.96 176.177 35.024 176.593 35.12C177.041 35.184 177.425 35.248 177.745 35.312C178.065 35.376 178.289 35.424 178.417 35.456V34.208C178.417 33.472 178.337 32.752 178.177 32.048C178.017 31.312 177.729 30.672 177.313 30.128C176.897 29.552 176.321 29.104 175.585 28.784C174.881 28.432 173.953 28.256 172.801 28.256C171.329 28.256 170.033 28.368 168.913 28.592C167.825 28.784 167.009 28.992 166.465 29.216L165.937 25.52C166.513 25.264 167.473 25.024 168.817 24.8C170.161 24.544 171.617 24.416 173.185 24.416ZM199.943 12.752C201.255 12.752 202.375 12.848 203.303 13.04C204.263 13.232 204.935 13.408 205.319 13.568L204.503 17.408C204.119 17.216 203.575 17.04 202.871 16.88C202.167 16.688 201.303 16.592 200.279 16.592C198.199 16.592 196.743 17.168 195.911 18.32C195.079 19.44 194.663 20.96 194.663 22.88V25.04H204.263V28.784H194.663V50H190.199V22.784C190.199 19.584 190.983 17.12 192.551 15.392C194.119 13.632 196.583 12.752 199.943 12.752ZM206.678 54.656C207.03 54.816 207.478 54.96 208.022 55.088C208.598 55.248 209.158 55.328 209.702 55.328C211.462 55.328 212.838 54.928 213.83 54.128C214.822 53.36 215.718 52.096 216.518 50.336C214.502 46.496 212.614 42.432 210.854 38.144C209.126 33.824 207.686 29.456 206.534 25.04H211.334C211.686 26.48 212.102 28.032 212.582 29.696C213.094 31.36 213.654 33.072 214.262 34.832C214.87 36.592 215.526 38.352 216.23 40.112C216.934 41.872 217.67 43.568 218.438 45.2C219.654 41.84 220.71 38.512 221.606 35.216C222.502 31.92 223.35 28.528 224.15 25.04H228.758C227.606 29.744 226.326 34.272 224.918 38.624C223.51 42.944 221.99 46.992 220.358 50.768C219.718 52.208 219.046 53.44 218.342 54.464C217.67 55.52 216.918 56.384 216.086 57.056C215.254 57.728 214.31 58.224 213.254 58.544C212.23 58.864 211.062 59.024 209.75 59.024C209.398 59.024 209.03 58.992 208.646 58.928C208.262 58.896 207.878 58.832 207.494 58.736C207.142 58.672 206.806 58.592 206.486 58.496C206.198 58.4 205.99 58.32 205.862 58.256L206.678 54.656Z" fill="white"/>
<defs>
<clipPath id="clip0_3_17">
<rect width="65" height="80" fill="white"/>
</clipPath>
</defs>
</svg>
